<?xml version="1.0" standalone="no"?>
<svg
  width="600"
  height="600"
  viewBox="0 0 600 600"
  xmlns="http://www.w3.org/2000/svg"
>
  <g transform="translate(300,300)">
    <path d="M87.8,-158.9C106.7,-124.4,110.2,-88.2,117.6,-57.9C125,-27.5,136.2,-3.2,133.5,19.6C130.8,42.3,114.2,63.4,97.4,86.4C80.6,109.4,63.7,134.3,35.4,161.2C7.1,188.1,-32.5,216.8,-51.6,200.1C-70.8,183.4,-69.4,121.2,-75.2,82.8C-81,44.4,-93.9,29.9,-109.9,7.6C-125.8,-14.7,-144.8,-44.7,-135.7,-60.9C-126.6,-77.1,-89.5,-79.3,-62.3,-110C-35,-140.7,-17.5,-199.9,8.5,-213C34.4,-226.2,68.8,-193.5,87.8,-158.9Z" fill="#7bdcb5" />
  </g>
</svg>
  