<?xml version="1.0" encoding="utf-8"?>
<!-- Generator: Adobe Illustrator 24.0.0, SVG Export Plug-In . SVG Version: 6.00 Build 0)  -->
<svg version="1.1" id="Calque_1" xmlns="http://www.w3.org/2000/svg" xmlns:xlink="http://www.w3.org/1999/xlink" x="0px" y="0px"
	 viewBox="0 0 477.1 344" style="enable-background:new 0 0 477.1 344;" xml:space="preserve">
<style type="text/css">
	.st0{fill:#5DA562;}
	.st1{font-family:'Arial-BoldMT';}
	.st2{font-size:72px;}
	.st3{letter-spacing:-2;}
</style>
<title>Logo</title>
<path class="st0" d="M184.6,46.6c15.4,28.2,18.3,57.8,24.4,82.5s15.2,44.7,13,63.3s-15.8,35.8-29.5,54.6s-27.5,39.1-50.7,61.1
	S86.3,353.6,70.6,340s-14.6-64.5-19.3-95.8s-15.3-43.2-28.3-61.5S-5.5,140,2,126.7s37.8-15,60-40.1s36.6-73.5,57.8-84.2
	S169.1,18.4,184.6,46.6z"/>
<text transform="matrix(1 0 0 1 248.06 196.08)" class="st0 st1 st2">G</text>
<text transform="matrix(1 0 0 1 308.04 196.08)" class="st0 st1 st2 st3">R</text>
<text transform="matrix(1 0 0 1 360.95 196.08)" class="st0 st1 st2">YN</text>
<path class="st0" d="M360.4,130.2c3.3,1.3,6.3,3.7,8.9,6.9c1.6,2.1,2.9,4.6,3.8,7.4h-12.2c-0.7-2.1-1.1-4.5-1.2-6.8
	C359.6,135.2,359.8,132.6,360.4,130.2z"/>
<path class="st0" d="M409.5,130.2c-2.8,1.4-5.4,3.5-7.7,6.2c-1.9,2.2-3.5,5-4.7,8.1H409c0.5-1.8,0.9-3.8,1.1-5.8
	C410.3,135.9,410.1,133,409.5,130.2z"/>
</svg>
